<?xml version="1.0" encoding="utf-8"?>
<!-- Generator: Adobe Illustrator 27.7.0, SVG Export Plug-In . SVG Version: 6.00 Build 0)  -->
<svg version="1.1" id="Ebene_1" xmlns="http://www.w3.org/2000/svg" xmlns:xlink="http://www.w3.org/1999/xlink" x="0px" y="0px"
	 viewBox="0 0 69.5 54.1" style="enable-background:new 0 0 69.5 54.1;" xml:space="preserve">
<style type="text/css">
	.st0{fill:#FFFFFF;}
</style>
<g id="arrow">
	<path d="M67.7,26.4c0,0,0-0.1-0.1-0.1C67.6,26.3,67.6,26.3,67.7,26.4C67.7,26.4,67.7,26.4,67.7,26.4z"/>
	<path d="M67.7,27.6C67.7,27.6,67.7,27.7,67.7,27.6c0,0.1-0.1,0.2-0.1,0.2C67.6,27.8,67.7,27.7,67.7,27.6z"/>
</g>
<g>
	<path class="st0" d="M67.8,27c0,0.1,0,0.2,0,0.3c0,0.1,0,0.2-0.1,0.2c0,0.1-0.1,0.1-0.1,0.2c-0.1,0.1-0.2,0.2-0.2,0.3L43.7,52.7
		c-0.3,0.3-0.7,0.5-1.1,0.5c-0.4,0-0.8-0.1-1-0.4c-0.3-0.3-0.5-0.7-0.5-1.1c0-0.4,0.1-0.8,0.4-1l21.3-22.1H4.3
		c-0.8,0-1.5-0.7-1.5-1.5s0.7-1.5,1.5-1.5h58.4L41.5,3.5c-0.3-0.3-0.4-0.7-0.4-1c0-0.4,0.2-0.8,0.5-1.1c0.6-0.6,1.5-0.6,2.1,0
		l23.6,24.6c0.1,0.1,0.2,0.2,0.3,0.3c0,0,0.1,0.1,0.1,0.1v0c0,0.1,0.1,0.2,0.1,0.3C67.8,26.8,67.8,26.9,67.8,27z"/>
</g>
</svg>
