<?xml version="1.0" encoding="UTF-8"?><svg id="Ebene_1" xmlns="http://www.w3.org/2000/svg" viewBox="0 0 22 22"><defs><style>.cls-1{fill:#7df2f3;stroke-width:0px;}</style></defs><path class="cls-1" d="m11,22h0C4.93,22,0,17.06,0,10.99,0,4.93,4.94,0,11,0h0c1.55,0,3.06.32,4.47.95.5.22.73.82.51,1.32-.22.5-.81.73-1.32.51-1.16-.52-2.39-.78-3.66-.78h0C6.04,2,2,6.03,2,11c0,4.96,4.03,9,8.99,9h0c4.96,0,9-4.03,9-8.99v-.92c0-.55.45-1,1-1s1,.45,1,1v.92c0,6.06-4.94,10.99-11,10.99Z"/><path class="cls-1" d="m11,14.02c-.27,0-.52-.11-.71-.29l-3-3c-.39-.39-.39-1.02,0-1.41s1.02-.39,1.41,0l2.29,2.29L20.29,2.3c.39-.39,1.02-.39,1.41,0,.39.39.39,1.02,0,1.41l-10,10.01c-.19.19-.44.29-.71.29Z"/></svg>