<?xml version="1.0" encoding="UTF-8"?><svg id="Ebene_2" xmlns="http://www.w3.org/2000/svg" viewBox="0 0 182.05 45.52"><defs><style>.cls-1{fill:none;stroke:#2f9999;stroke-miterlimit:10;stroke-width:2px;}.cls-2{fill:#fff;stroke-width:0px;}</style></defs><path id="Polygon_1" class="cls-2" d="m59.39,3.51h38.72l-19.36,32.91L59.39,3.51Z"/><g id="Polygon_2"><path class="cls-1" d="m102.27,44.52h-20.62l10.31-17.62s10.31,17.62,10.31,17.62Z"/></g><path class="cls-2" d="m24.25,36.22c-2.52,2.52-6.15,3.74-10.28,3.74H0V.17h13.97c4.14,0,7.77,1.23,10.28,3.74,4.3,4.3,4.02,10.12,4.02,15.87s.28,12.13-4.02,16.43h0Zm-4.14-27.94c-1.68-1.84-3.91-2.68-6.76-2.68h-7.32v28.95h7.32c2.85,0,5.09-.84,6.76-2.68,2.07-2.29,2.12-6.59,2.12-12.07s-.06-9.22-2.12-11.51h0Z"/><path class="cls-2" d="m40.74,27.45c0,4.86,2.57,7.94,7.21,7.94,3.19,0,4.86-.89,6.87-2.91l3.63,3.41c-2.91,2.91-5.64,4.41-10.62,4.41-7.1,0-12.74-3.74-12.74-14.53,0-9.17,4.75-14.47,12.02-14.47s12.02,5.59,12.02,13.64v2.52h-18.39Zm11.96-7.82c-.9-2.12-2.91-3.58-5.59-3.58s-4.75,1.45-5.64,3.58c-.56,1.29-.67,2.12-.73,3.86h12.74c-.06-1.73-.22-2.57-.78-3.86Z"/><path class="cls-2" d="m133.27,39.96l-11.18-19.62-6.71,8.05v11.57h-6.04V.17h6.04v20.01L131.64.17h7.38l-12.91,15.59,14.25,24.2h-7.1.01Z"/><path class="cls-2" d="m145.29,6.04V0h6.04v6.04h-6.04Zm.17,33.92V11.63h5.7v28.33h-5.7Z"/><path class="cls-2" d="m176.47,39.96v-3.02c-2.12,2.57-4.42,3.35-7.49,3.35-2.85,0-5.37-.95-6.93-2.51-2.85-2.85-3.19-7.71-3.19-12.02s.34-9.11,3.19-11.96c1.56-1.56,4.02-2.52,6.87-2.52,3.02,0,5.36.73,7.43,3.19V.16h5.7v39.79h-5.59.01Zm-5.98-23.58c-5.14,0-5.92,4.36-5.92,9.39s.78,9.44,5.92,9.44,5.87-4.42,5.87-9.44-.73-9.39-5.87-9.39Z"/></svg>