<?xml version="1.0" encoding="UTF-8"?><svg id="Ebene_1" xmlns="http://www.w3.org/2000/svg" viewBox="0 0 208.23 149.83"><defs><style>.cls-1{stroke-width:5px;}.cls-1,.cls-2{stroke-miterlimit:10;}.cls-1,.cls-2,.cls-3{fill:none;stroke:#fff;}.cls-2{stroke-width:3px;}.cls-3{stroke-linecap:round;stroke-linejoin:round;stroke-width:4px;}</style></defs><rect class="cls-1" x="2.5" y="2.5" width="203.23" height="122.04"/><rect class="cls-1" x="62.99" y="147.17" width="82" height=".02"/><rect class="cls-1" x="84.95" y="124.73" width="38.09" height="22.6"/><line class="cls-2" x1="184.57" y1="14.49" x2="156.99" y2="40.02"/><line class="cls-2" x1="193.59" y1="23.51" x2="174.4" y2="40.67"/><line class="cls-2" x1="40.23" y1="78.49" x2="12.65" y2="104.02"/><line class="cls-2" x1="41.16" y1="95.6" x2="21.68" y2="113.05"/><circle class="cls-3" cx="139.38" cy="75.44" r="7.1"/><path class="cls-3" d="m156.9,82.54c-.64,1.46-.34,3.17.78,4.31l.14.14c1.85,1.85,1.85,4.85,0,6.7h0c-1.85,1.85-4.85,1.86-6.7,0h0s-.14-.15-.14-.15c-1.14-1.12-2.85-1.43-4.31-.78-1.43.61-2.36,2.02-2.37,3.57v.4c0,2.62-2.12,4.74-4.74,4.74s-4.74-2.12-4.74-4.74v-.21c-.04-1.6-1.05-3.02-2.56-3.57-1.46-.64-3.17-.34-4.31.78l-.14.14c-1.85,1.85-4.85,1.85-6.7,0,0,0,0,0,0,0-1.85-1.85-1.85-4.85,0-6.7,0,0,0,0,0,0l.14-.14c1.12-1.14,1.43-2.85.78-4.31-.61-1.43-2.02-2.36-3.57-2.37h-.4c-2.62,0-4.74-2.12-4.74-4.74s2.12-4.74,4.74-4.74h.21c1.6-.04,3.02-1.05,3.57-2.56.64-1.46.34-3.17-.78-4.31l-.14-.14c-1.85-1.85-1.85-4.85,0-6.7,0,0,0,0,0,0,1.85-1.85,4.85-1.85,6.7,0,0,0,0,0,0,0l.14.14c1.14,1.12,2.85,1.43,4.31.78h.19c1.43-.61,2.36-2.02,2.37-3.57v-.4c0-2.62,2.12-4.74,4.74-4.74s4.74,2.12,4.74,4.74v.21c0,1.56.94,2.96,2.37,3.57,1.46.64,3.17.34,4.31-.78l.14-.14c1.85-1.85,4.85-1.85,6.7,0,0,0,0,0,0,0,1.85,1.85,1.85,4.85,0,6.7,0,0,0,0,0,0l-.14.14c-1.12,1.14-1.43,2.85-.78,4.31v.19c.61,1.43,2.02,2.36,3.57,2.37h.4c2.62,0,4.74,2.12,4.74,4.74s-2.12,4.74-4.74,4.74h-.21c-1.56,0-2.96.94-3.57,2.37Z"/><path class="cls-3" d="m110.35,57.95c-2.4-3.4-6.36-5.61-10.84-5.61h-26.53c-7.33,0-13.26,5.94-13.26,13.26v6.63"/><circle class="cls-3" cx="86.25" cy="31.26" r="13.26"/><polyline class="cls-3" points="125.09 102.59 125.09 108.04 81.51 108.04 81.51 64.46 100.91 64.46"/><line class="cls-3" x1="92.06" y1="76.61" x2="105.68" y2="76.61"/><line class="cls-3" x1="92.06" y1="86.48" x2="105.68" y2="86.48"/><line class="cls-3" x1="92.06" y1="96.35" x2="105.68" y2="96.35"/></svg>