<?xml version="1.0" encoding="UTF-8"?><svg id="Ebene_1" xmlns="http://www.w3.org/2000/svg" viewBox="0 0 200.87 91.2"><defs><style>.cls-1{stroke-width:5px;}.cls-1,.cls-2,.cls-3,.cls-4,.cls-5{fill:none;stroke:#fff;}.cls-1,.cls-2,.cls-4{stroke-miterlimit:10;}.cls-2{stroke-width:3px;}.cls-6{fill:#fff;stroke-width:0px;}.cls-3{stroke-width:2px;}.cls-3,.cls-5{stroke-linecap:round;stroke-linejoin:round;}.cls-4,.cls-5{stroke-width:4px;}</style></defs><rect class="cls-4" x="2" y="2" width="119.83" height="71.96"/><polygon class="cls-1" points="37.67 88.7 86.03 88.7 86.03 88.7 37.67 88.7"/><rect class="cls-4" x="50.62" y="74.07" width="22.46" height="13.32"/><line class="cls-2" x1="103.21" y1="14.5" x2="85.94" y2="28.74"/><line class="cls-2" x1="109.03" y1="23.4" x2="96.91" y2="33.59"/><line class="cls-2" x1="55.13" y1="22.79" x2="15.56" y2="55.72"/><line class="cls-2" x1="50.87" y1="39.64" x2="23.94" y2="62.57"/><rect class="cls-4" x="136.07" y="8.63" width="62.8" height="16.17" rx="4" ry="4"/><line class="cls-3" x1="175.18" y1="14.3" x2="190.42" y2="14.3"/><line class="cls-3" x1="175.18" y1="19.13" x2="190.42" y2="19.13"/><circle class="cls-6" cx="145.25" cy="16.71" r="2.42"/><circle class="cls-4" cx="146.7" cy="77.14" r="4.92"/><circle class="cls-4" cx="167.62" cy="77.14" r="4.92"/><circle class="cls-4" cx="189.1" cy="77.14" r="4.92"/><rect class="cls-4" x="136.07" y="24.98" width="62.8" height="16.17" rx="4" ry="4"/><line class="cls-3" x1="175.18" y1="30.66" x2="190.42" y2="30.66"/><line class="cls-3" x1="175.18" y1="35.49" x2="190.42" y2="35.49"/><circle class="cls-6" cx="145.25" cy="33.07" r="2.42"/><rect class="cls-4" x="136.07" y="41.34" width="62.8" height="16.17" rx="4" ry="4"/><line class="cls-3" x1="175.18" y1="47.02" x2="190.42" y2="47.02"/><line class="cls-3" x1="175.18" y1="51.85" x2="190.42" y2="51.85"/><circle class="cls-6" cx="145.25" cy="49.43" r="2.42"/><line class="cls-5" x1="167.47" y1="57.65" x2="167.47" y2="71.7"/><line class="cls-5" x1="172.54" y1="77.15" x2="183.96" y2="77.15"/><line class="cls-5" x1="152.18" y1="77.15" x2="162.58" y2="77.15"/></svg>