<?xml version="1.0" encoding="UTF-8"?><svg id="Ebene_1" xmlns="http://www.w3.org/2000/svg" viewBox="0 0 18.94 19.11"><defs><style>.cls-1{fill:#fff;fill-rule:evenodd;stroke-width:0px;}</style></defs><path class="cls-1" d="m9.53,0c2.42.01,4.75.96,6.5,2.64,1.79,1.71,2.82,4.01,2.91,6.49.09,2.42-.76,4.79-2.36,6.61-1.76,1.99-4.2,3.13-6.84,3.21-.09,0-.18,0-.27,0-1.42,0-2.83-.32-4.1-.93l-4.96,1.1s-.08-.02-.09-.06c0,0,0-.02,0-.02l.84-5.01C.45,12.71.05,11.24,0,9.74c-.07-2.53.84-4.93,2.58-6.77C4.38,1.06,6.84,0,9.48,0c0,0,.05,0,.05,0Zm-.05,1.64c-.08,0-.15,0-.23,0-4.31.12-7.72,3.73-7.6,8.05.04,1.32.41,2.61,1.07,3.74l.14.24-.62,3.4,3.37-.79.25.13c1.11.58,2.35.88,3.61.88.07,0,.15,0,.22,0,4.31-.12,7.72-3.73,7.6-8.05-.12-4.24-3.61-7.6-7.82-7.6Zm-3.27,3.25c.16,0,.32,0,.46.02.17.01.36.03.52.43.2.48.62,1.67.68,1.79.06.12.09.26,0,.42-.08.16-.13.25-.25.39-.12.14-.26.3-.37.41-.12.11-.25.24-.12.48.13.24.58,1.04,1.27,1.69.88.84,1.59,1.11,1.87,1.25.1.05.19.07.26.07.1,0,.18-.04.26-.12.15-.15.59-.67.78-.91.1-.13.19-.17.28-.17.08,0,.16.03.25.07.22.09,1.37.7,1.6.82.23.13.39.19.45.29.06.1.04.58-.17,1.13-.22.55-1.2,1.06-1.64,1.08-.13,0-.25.03-.42.03-.4,0-1.01-.1-2.42-.71-2.39-1.03-3.83-3.55-3.95-3.71-.11-.16-.93-1.32-.89-2.49.04-1.17.67-1.73.89-1.96.22-.22.46-.28.62-.28,0,0,.02,0,.02,0Z"/></svg>