<?xml version="1.0" standalone="no"?>
<!DOCTYPE svg PUBLIC "-//W3C//DTD SVG 20010904//EN"
 "http://www.w3.org/TR/2001/REC-SVG-20010904/DTD/svg10.dtd">
<svg version="1.0" xmlns="http://www.w3.org/2000/svg"
 width="960.000000pt" height="960.000000pt" viewBox="0 0 960.000000 960.000000"
 preserveAspectRatio="xMidYMid meet">
<metadata>
Created by potrace 1.14, written by Peter Selinger 2001-2017
</metadata>
<g transform="translate(0.000000,960.000000) scale(0.100000,-0.100000)"
fill="#000000" stroke="none">
<path d="M10 7510 c0 -5 33 -65 73 -132 40 -68 76 -130 80 -138 8 -16 13 -24
70 -116 20 -34 37 -67 37 -73 0 -6 4 -11 9 -11 5 0 11 -8 14 -17 4 -10 17 -36
30 -58 13 -22 77 -130 141 -240 64 -110 121 -207 126 -215 57 -95 116 -197
119 -205 2 -5 7 -12 10 -15 6 -5 49 -81 66 -117 5 -13 13 -23 18 -23 4 0 7 -7
7 -15 0 -8 5 -15 10 -15 6 0 10 -4 10 -10 0 -5 22 -47 49 -92 27 -46 58 -99
69 -118 10 -19 66 -114 122 -210 57 -96 110 -186 117 -200 8 -14 23 -38 33
-55 11 -16 28 -46 38 -65 16 -30 124 -215 151 -260 36 -58 550 -937 566 -967
11 -20 26 -43 32 -51 7 -7 16 -24 19 -38 3 -13 9 -24 13 -24 3 0 17 -21 31
-47 13 -27 27 -50 30 -53 6 -6 23 -36 63 -107 16 -29 32 -53 36 -53 4 0 49 72
101 161 52 89 105 177 117 197 12 21 34 61 50 90 15 28 31 52 35 52 4 0 8 5 8
11 0 5 26 54 58 107 31 53 60 105 64 115 4 9 12 23 18 30 17 18 200 337 200
347 0 5 4 10 8 12 4 2 19 23 33 48 28 50 334 574 354 605 7 11 12 23 11 26 -1
4 6 15 15 25 14 16 74 116 145 242 11 20 57 99 102 176 45 76 82 140 82 142 0
2 12 20 26 41 14 21 33 54 42 73 9 19 24 44 34 54 10 11 18 23 18 28 0 4 43
81 96 170 53 90 104 176 113 193 9 16 49 85 89 152 39 67 72 126 72 132 0 6 4
11 8 11 4 0 18 19 30 43 12 23 35 65 52 92 17 28 33 57 37 65 4 8 9 17 13 20
3 3 33 52 65 109 33 58 70 122 82 143 l23 38 -2195 0 c-1410 0 -2195 -3 -2195
-10z m631 -231 c57 2 81 2 169 2 36 -1 82 -1 103 -1 22 0 43 -2 48 -6 5 -3 9
-1 9 4 0 6 14 7 34 2 19 -4 37 -5 40 -3 3 3 31 4 63 3 70 -2 73 -2 98 0 11 1
43 2 70 1 28 0 64 -1 80 0 17 0 59 0 95 0 36 -1 82 -1 103 -1 22 0 43 -2 48
-6 5 -3 9 -1 9 4 0 6 14 7 34 2 19 -4 37 -5 40 -3 3 3 31 4 63 3 70 -2 73 -2
98 0 11 1 43 2 70 1 28 0 64 -1 80 0 17 0 59 0 95 0 36 -1 82 -1 103 -1 22 0
43 -2 48 -6 5 -3 9 -1 9 4 0 6 14 7 34 2 19 -4 37 -5 40 -3 3 3 31 4 63 3 32
-1 65 -1 73 -1 77 2 149 1 168 -3 12 -3 22 -1 22 4 0 4 16 4 34 0 19 -4 37 -6
39 -3 3 2 31 4 63 3 33 0 68 -1 79 0 22 0 42 0 128 -3 31 -1 57 1 57 4 0 4 16
3 34 -1 19 -4 37 -5 40 -3 3 3 31 4 63 3 32 -1 63 -1 68 -1 6 0 44 1 86 2 43
1 82 -1 87 -5 6 -3 13 -2 16 3 3 5 21 5 41 1 19 -4 37 -4 40 1 3 4 11 6 18 4
28 -10 67 -13 67 -5 0 4 16 4 34 0 19 -4 37 -6 39 -3 3 2 31 4 63 3 33 0 67
-1 77 0 29 0 50 0 105 0 l52 0 -15 -28 c-9 -15 -29 -49 -46 -77 -16 -27 -35
-61 -42 -75 -6 -14 -14 -27 -17 -30 -8 -7 -64 -103 -114 -195 -6 -11 -14 -22
-17 -25 -3 -3 -12 -18 -21 -35 -20 -41 -216 -374 -239 -407 -11 -15 -19 -30
-19 -33 0 -4 -37 -68 -82 -143 -44 -75 -89 -150 -98 -167 -10 -16 -33 -57 -52
-90 -19 -33 -46 -79 -61 -102 -15 -24 -27 -45 -27 -48 0 -3 -11 -24 -26 -46
-14 -22 -33 -55 -43 -72 -10 -18 -62 -106 -115 -196 -53 -90 -96 -166 -96
-169 0 -3 -11 -20 -25 -38 -14 -18 -25 -36 -25 -39 0 -4 -31 -60 -69 -124 -38
-64 -77 -130 -87 -148 -43 -72 -88 -150 -104 -178 -9 -16 -36 -60 -58 -98 -23
-37 -42 -70 -42 -74 0 -3 -6 -14 -14 -22 -7 -9 -27 -41 -43 -71 -16 -30 -59
-105 -96 -166 -37 -61 -69 -118 -73 -128 -9 -23 -26 -7 -60 57 -14 29 -35 63
-45 76 -11 13 -19 27 -19 32 0 4 -22 44 -50 88 -27 44 -50 83 -50 85 0 3 -23
41 -50 86 -28 45 -50 83 -50 86 0 2 -12 23 -27 47 -15 23 -33 53 -40 67 -7 14
-27 48 -43 75 -17 28 -49 82 -71 120 -22 39 -49 84 -59 100 -10 17 -25 41 -33
55 -15 28 -213 366 -246 420 -12 19 -26 47 -32 63 -6 15 -14 27 -19 27 -4 0
-10 8 -13 18 -6 17 -37 72 -47 82 -3 3 -14 23 -25 45 -11 22 -26 46 -32 53 -7
7 -13 20 -13 28 0 8 -4 14 -9 14 -5 0 -11 8 -14 18 -8 23 -40 76 -49 80 -5 2
-8 8 -8 14 0 6 -17 38 -37 72 -63 102 -73 120 -79 139 -4 9 -10 17 -15 17 -5
0 -9 6 -9 14 0 7 -7 19 -15 26 -9 7 -14 15 -11 17 2 3 -19 41 -46 86 -28 45
-62 102 -76 127 -14 25 -40 69 -58 98 -19 28 -31 52 -27 52 3 0 -1 8 -9 18
-20 23 -158 259 -158 270 0 5 -9 17 -20 27 -11 10 -17 22 -14 26 3 5 0 9 -5 9
-6 0 -11 4 -11 9 0 10 -70 132 -80 141 -4 3 -9 12 -12 21 -6 14 3 17 64 17 38
0 72 3 75 6 3 3 10 3 16 -1 5 -3 31 -5 58 -4z"/>
<path d="M6345 7428 c-27 -46 -55 -93 -62 -105 -27 -51 -48 -88 -53 -93 -3 -3
-17 -26 -30 -52 -14 -27 -28 -48 -32 -48 -5 0 -8 -4 -8 -9 0 -6 -40 -78 -90
-162 -49 -83 -90 -155 -90 -159 0 -5 -3 -10 -7 -12 -8 -3 -31 -42 -75 -125
-12 -24 -26 -43 -30 -43 -4 0 -8 -4 -8 -10 0 -5 -18 -39 -40 -75 -22 -36 -40
-67 -40 -68 0 -2 -32 -57 -71 -123 -40 -65 -80 -133 -89 -150 -16 -27 -49 -83
-143 -242 -15 -26 -35 -62 -44 -79 -9 -18 -20 -33 -25 -33 -4 0 -8 -9 -8 -19
0 -11 -4 -21 -8 -23 -6 -2 -96 -150 -177 -293 -51 -89 -135 -231 -142 -240 -4
-5 -15 -23 -23 -40 -8 -16 -18 -32 -21 -35 -3 -3 -19 -30 -36 -60 -47 -85
-117 -204 -123 -210 -5 -5 -9 -13 -52 -89 -18 -32 -95 -163 -118 -201 -5 -8
-34 -58 -65 -110 -31 -52 -60 -102 -65 -110 -50 -79 -190 -324 -190 -331 0 -5
-3 -9 -8 -9 -4 0 -14 -15 -22 -32 -7 -18 -18 -37 -22 -43 -11 -12 -227 -381
-242 -412 -6 -13 -14 -23 -18 -23 -5 0 -8 -4 -8 -10 0 -5 -14 -33 -31 -62
-120 -202 -189 -321 -189 -329 0 -5 -4 -9 -8 -9 -5 0 -19 -22 -32 -50 -13 -27
-27 -50 -32 -50 -4 0 -8 -4 -8 -9 0 -5 -43 -83 -97 -173 -53 -89 -103 -174
-111 -188 -7 -14 -24 -41 -35 -62 -12 -20 -40 -67 -61 -105 -22 -37 -43 -69
-48 -71 -4 -2 -8 -10 -8 -19 0 -8 -11 -29 -24 -46 -13 -18 -33 -50 -45 -72
-39 -73 -84 -149 -108 -185 l-23 -35 1600 -3 c880 -1 2320 -1 3199 0 l1600 3
-45 75 c-24 41 -49 82 -54 90 -6 8 -16 26 -22 40 -7 14 -15 27 -19 30 -3 3 -9
12 -12 20 -4 8 -16 29 -27 45 -11 17 -23 37 -27 45 -6 13 -93 161 -144 245
-10 17 -27 46 -37 65 -11 19 -91 157 -180 307 -88 149 -168 284 -177 300 -8
15 -24 42 -35 58 -11 17 -23 36 -27 44 -3 8 -56 98 -116 200 -61 102 -118 200
-127 216 -9 17 -44 75 -76 130 -33 55 -63 107 -67 115 -4 8 -15 27 -25 42 -15
23 -77 129 -132 224 -10 17 -37 62 -59 99 -23 37 -41 71 -41 75 0 5 -3 10 -7
12 -5 2 -18 24 -31 51 -13 26 -28 47 -33 47 -5 0 -9 5 -9 11 0 9 -45 91 -100
179 -5 8 -44 75 -87 148 -43 74 -82 141 -88 151 -5 9 -44 74 -85 144 -41 71
-83 140 -92 155 -10 15 -21 34 -25 42 -4 8 -38 66 -75 129 -37 62 -68 115 -68
118 0 2 -11 20 -24 41 -36 56 -200 336 -201 342 0 3 -9 19 -20 35 -11 17 -25
39 -32 50 -6 11 -64 110 -129 220 -65 110 -138 235 -163 278 -25 43 -54 91
-63 105 -9 15 -23 38 -31 52 -31 55 -57 101 -80 137 -13 21 -35 58 -49 83 -29
52 -219 376 -239 408 -8 12 -16 22 -19 22 -3 0 -28 -37 -55 -82z"/>
</g>
</svg>
