<?xml version="1.0" encoding="UTF-8"?><svg id="Ebene_1" xmlns="http://www.w3.org/2000/svg" viewBox="0 0 208.23 149.87"><defs><style>.cls-1{stroke-linecap:round;stroke-linejoin:round;stroke-width:4px;}.cls-1,.cls-2,.cls-3{fill:none;stroke:#000;}.cls-2{stroke-width:3px;}.cls-2,.cls-3{stroke-miterlimit:10;}.cls-3{stroke-width:5px;}.cls-4{font-family:DINPro-Medium, DINPro;font-size:45.07px;font-weight:500;}</style></defs><rect class="cls-3" x="2.5" y="2.55" width="203.23" height="122.04"/><rect class="cls-3" x="62.99" y="147.22" width="82" height=".02"/><rect class="cls-3" x="84.95" y="124.78" width="38.09" height="22.6"/><line class="cls-2" x1="184.57" y1="14.54" x2="156.99" y2="40.07"/><line class="cls-2" x1="193.59" y1="23.56" x2="166.02" y2="49.1"/><line class="cls-2" x1="40.23" y1="78.54" x2="12.65" y2="104.07"/><line class="cls-2" x1="49.25" y1="87.56" x2="21.68" y2="113.1"/><path class="cls-1" d="m144.48,93.35c0,2.94-2.51,5.51-5.6,5.51h-39.19c-3.09,0-5.6-3.17-5.6-7.08v-49.56c0-3.91,2.51-7.08,5.6-7.08h39.19c3.09,0,5.6,3.17,5.6,7.08"/><path class="cls-1" d="m102.27,98.86h-36.36c-2.87,0-5.19-2.59-5.19-5.78v-40.43c0-3.19,2.33-5.78,5.19-5.78h27.25"/><text class="cls-4" transform="translate(115.39 83.38)"><tspan x="0" y="0">15</tspan></text></svg>