<?xml version="1.0" encoding="UTF-8"?><svg id="Ebene_4" xmlns="http://www.w3.org/2000/svg" viewBox="0 0 208.23 153.39"><defs><style>.cls-1{fill:none;stroke:#000;stroke-linecap:round;stroke-linejoin:round;stroke-width:4px;}</style></defs><path class="cls-1" d="m49.32,97.14v-37.06c0-30.7,24.89-55.59,55.59-55.59s55.59,24.89,55.59,55.59v37.06"/><path class="cls-1" d="m160.5,103.32c0,6.82-5.53,12.35-12.35,12.35h-6.18c-6.82,0-12.35-5.53-12.35-12.35v-18.53c0-6.82,5.53-12.35,12.35-12.35h18.53v30.88Zm-111.17,0c0,6.82,5.53,12.35,12.35,12.35h6.18c6.82,0,12.35-5.53,12.35-12.35v-18.53c0-6.82-5.53-12.35-12.35-12.35h-18.53v30.88Z"/><path class="cls-1" d="m160.5,97.14v10.03c-1.34,34.53-14.48,44.22-32.57,44.22h-21.84"/><path class="cls-1" d="m102.45,151.39c-4.02,0-7.28-3.26-7.28-7.28v-3.64c0-4.02,3.26-7.28,7.28-7.28h10.92c4.02,0,7.28,3.26,7.28,7.28v10.92h-18.2Z"/></svg>